<?xml version="1.0" standalone="no"?>
<!DOCTYPE svg PUBLIC "-//W3C//DTD SVG 20010904//EN"
 "http://www.w3.org/TR/2001/REC-SVG-20010904/DTD/svg10.dtd">
<svg version="1.0" xmlns="http://www.w3.org/2000/svg"
 width="144.000000pt" height="151.000000pt" viewBox="0 0 144.000000 151.000000"
 preserveAspectRatio="xMidYMid meet">

<g transform="translate(0.000000,151.000000) scale(0.100000,-0.100000)"
fill="#000000" stroke="none">
<path d="M672 1379 c-52 -26 -100 -87 -137 -172 l-28 -64 -104 5 c-80 4 -113
1 -146 -12 -106 -40 -135 -131 -80 -248 17 -35 46 -83 66 -108 36 -44 36 -45
17 -65 -24 -25 -25 -41 -5 -49 9 -3 21 4 31 19 l16 24 56 -49 c32 -27 67 -57
79 -67 18 -14 26 -38 38 -106 8 -48 16 -93 18 -99 3 -19 -109 -30 -178 -18
-75 12 -107 36 -120 86 -16 67 -50 75 -43 10 6 -48 29 -86 69 -110 39 -23 145
-36 219 -27 36 5 65 8 66 7 0 0 19 -40 42 -88 110 -230 278 -225 389 11 36 77
39 81 66 75 22 -5 27 -2 27 14 0 12 -9 22 -21 25 -19 5 -21 11 -15 44 4 21 11
65 17 98 8 50 15 64 42 85 17 14 52 44 78 67 l45 42 38 -50 c80 -107 97 -192
51 -247 -25 -30 -33 -62 -16 -62 17 0 69 69 76 100 14 63 -23 163 -91 246
l-34 42 39 48 c55 71 83 130 88 193 4 47 1 62 -19 91 -13 19 -43 45 -68 58
-41 21 -55 23 -159 20 -105 -4 -114 -3 -119 14 -7 26 -37 18 -37 -10 0 -19
-13 -27 -85 -53 -47 -17 -92 -31 -100 -31 -8 0 -53 14 -100 30 -95 34 -97 37
-60 116 44 93 119 154 175 144 24 -5 55 16 42 28 -17 17 -85 14 -125 -7z
m-193 -278 c12 -8 13 -19 3 -63 -6 -29 -14 -72 -17 -95 -7 -42 -4 -39 -137
-151 l-27 -23 -35 48 c-51 70 -76 127 -76 175 1 83 56 117 190 117 47 1 91 -3
99 -8z m735 -5 c42 -17 76 -61 76 -97 0 -42 -36 -128 -76 -182 l-35 -48 -37
30 c-120 97 -123 100 -137 182 -7 42 -16 86 -19 97 -9 26 4 29 112 31 50 1 96
-4 116 -13z m-599 -27 c36 -12 65 -25 65 -28 -1 -5 -145 -89 -170 -99 -5 -2
-7 5 -5 15 3 10 9 44 15 76 6 31 16 57 20 57 5 0 39 -10 75 -21z m343 -53 c8
-37 12 -70 10 -72 -6 -5 -168 87 -168 95 0 9 121 50 135 47 6 -1 16 -33 23
-70z m-149 -33 c36 -20 89 -52 118 -71 50 -33 51 -35 58 -93 4 -33 4 -96 0
-140 l-7 -81 -53 -33 c-29 -19 -82 -50 -119 -70 l-66 -37 -93 51 c-154 86
-150 81 -155 200 -6 142 0 164 52 201 41 27 186 110 195 110 2 0 34 -17 70
-37z m-361 -295 l-3 -52 -57 51 -57 52 57 51 57 51 3 -50 c2 -28 2 -75 0 -103z
m642 103 l55 -49 -25 -27 c-14 -15 -42 -40 -62 -56 l-37 -30 0 106 c0 58 3
105 7 105 4 0 32 -22 62 -49z m-417 -351 c8 -7 -102 -50 -129 -50 -12 0 -34
80 -34 125 0 24 2 23 78 -21 42 -25 81 -49 85 -54z m287 25 c-7 -36 -16 -68
-21 -71 -11 -6 -139 34 -139 44 1 8 163 101 169 96 2 -2 -2 -33 -9 -69z m-110
-89 c41 -15 76 -28 78 -30 2 -2 -12 -37 -32 -77 -46 -97 -90 -140 -151 -147
-45 -5 -47 -4 -98 49 -50 52 -110 169 -90 177 4 1 44 16 88 32 90 32 101 32
205 -4z"/>
<path d="M693 835 c-42 -18 -68 -70 -59 -117 20 -108 175 -115 207 -10 15 51
-8 104 -56 126 -40 19 -51 19 -92 1z m75 -51 c42 -29 20 -104 -30 -104 -64 0
-78 92 -18 113 23 8 24 8 48 -9z"/>
<path d="M816 1339 c-30 -35 -32 -58 -11 -98 16 -32 33 -41 79 -41 73 0 107
99 51 147 -39 34 -87 31 -119 -8z m93 -38 c14 -26 -8 -54 -39 -49 -25 3 -36
27 -26 54 8 20 53 17 65 -5z"/>
<path d="M160 630 c-24 -24 -25 -38 -4 -68 17 -24 62 -30 82 -10 20 20 15 76
-7 88 -29 15 -49 12 -71 -10z m55 -40 c0 -8 -8 -16 -17 -18 -13 -2 -18 3 -18
18 0 15 5 20 18 18 9 -2 17 -10 17 -18z"/>
<path d="M1080 383 c-52 -66 37 -150 98 -93 26 25 30 81 6 104 -26 26 -79 20
-104 -11z m77 -29 c3 -8 -1 -22 -9 -30 -13 -14 -17 -14 -31 1 -9 8 -14 22 -11
30 8 20 43 19 51 -1z"/>
</g>
</svg>
